<svg width="241" height="65" viewBox="0 0 241 65" fill="none" xmlns="http://www.w3.org/2000/svg">
<path d="M216.327 48.9975V4.81781H226.579L231.734 28.7768V4.81781H240.796V48.9975H231.054L225.503 25.0668V48.9975H216.327Z" fill="#222222"/>
<path d="M200.468 49.4506C196.39 49.4506 193.322 48.2234 191.264 45.769C189.206 43.2957 188.177 39.8406 188.177 35.4037V17.392C188.177 13.1062 189.225 9.86827 191.321 7.67816C193.435 5.46918 196.485 4.36469 200.468 4.36469C204.471 4.36469 207.52 5.46918 209.616 7.67816C211.711 9.86827 212.759 13.1062 212.759 17.392V35.4037C212.759 39.8406 211.73 43.2957 209.672 45.769C207.614 48.2234 204.546 49.4506 200.468 49.4506ZM200.553 40.558C201.497 40.558 202.111 40.1332 202.394 39.2836C202.677 38.4151 202.819 37.3767 202.819 36.1684V16.9389C202.819 16.0515 202.696 15.2208 202.451 14.4467C202.205 13.6537 201.592 13.2573 200.61 13.2573C199.647 13.2573 198.986 13.6254 198.627 14.3618C198.288 15.0792 198.118 15.9666 198.118 17.0239V36.225C198.118 37.5278 198.269 38.5756 198.571 39.3686C198.873 40.1616 199.534 40.558 200.553 40.558Z" fill="#222222"/>
<path d="M172.403 48.9975V4.81781H182.031V48.9975H172.403Z" fill="#222222"/>
<path d="M152.494 48.9975V14.3901H146.575V4.81781H168.382V14.3901H162.463V48.9975H152.494Z" fill="#222222"/>
<path d="M118.584 48.9975L123.399 4.81781H140.306L145.035 48.9975H135.605L134.953 40.9545H128.836L128.27 48.9975H118.584ZM131.498 12.7475L129.657 32.9965H134.019L131.951 12.7475H131.498Z" fill="#222222"/>
<path d="M54.8667 48.9975V4.81781H64.8354V40.5014H75.0874V48.9975H54.8667Z" fill="#222222"/>
<path d="M26.9236 48.9975V4.81781H46.8611V14.4467H37.0623V21.7534H46.4646V31.1274H37.0623V39.2836H47.5125V48.9975H26.9236Z" fill="#222222"/>
<path d="M0.383789 48.9976V4.81763H13.939C16.1982 4.81763 17.9052 5.33641 19.0599 6.37397C20.2146 7.39479 20.9844 8.83399 21.3693 10.6916C21.7709 12.5324 21.9717 14.6996 21.9717 17.193C21.9717 19.6029 21.6621 21.5274 21.043 22.9666C20.4405 24.4058 19.2942 25.4015 17.6039 25.9537C18.9929 26.2382 19.9636 26.9327 20.5158 28.0372C21.0848 29.125 21.3693 30.5391 21.3693 32.2795V48.9976H12.6588V31.7022C12.6588 30.4136 12.391 29.6187 11.8555 29.3174C11.3367 28.9995 10.4916 28.8405 9.3202 28.8405V48.9976H0.383789ZM9.3704 21.1843H11.5041C12.7257 21.1843 13.3366 19.8539 13.3366 17.193C13.3366 15.4694 13.2027 14.3398 12.9349 13.8042C12.6672 13.2687 12.1651 13.001 11.4288 13.001H9.3704V21.1843Z" fill="#222222"/>
<path d="M108.64 32.7939C106.017 32.7939 103.902 31.9768 102.295 30.3426C100.702 28.7084 99.9058 26.4219 99.9058 23.4831V10.8764C99.9058 7.36078 100.599 4.66915 101.986 2.80149C103.387 0.93383 105.66 0 108.805 0C110.521 0 112.046 0.315854 113.378 0.947563C114.723 1.57927 115.781 2.52683 116.55 3.79025C117.319 5.03993 117.703 6.61921 117.703 8.52806V14.2958H110.494V9.22844C110.494 8.14355 110.356 7.41571 110.082 7.04492C109.807 6.6604 109.381 6.46814 108.805 6.46814C108.132 6.46814 107.679 6.71534 107.445 7.20972C107.212 7.69036 107.095 8.3358 107.095 9.14604V23.5861C107.095 24.5886 107.239 25.2958 107.527 25.7078C107.83 26.1198 108.255 26.3258 108.805 26.3258C109.423 26.3258 109.855 26.0717 110.102 25.5636C110.363 25.0555 110.494 24.3963 110.494 23.5861V18.9101H117.786V23.7097C117.786 26.8957 116.982 29.2096 115.376 30.6516C113.769 32.0798 111.524 32.7939 108.64 32.7939Z" fill="#FFCE16"/>
<path d="M86.6964 32.7939C83.7301 32.7939 81.4985 31.9013 80.0017 30.116C78.5048 28.317 77.7563 25.8039 77.7563 22.5767V9.47562C77.7563 6.35828 78.5185 4.00311 80.0429 2.4101C81.5809 0.803368 83.7988 0 86.6964 0C89.6077 0 91.8256 0.803368 93.3499 2.4101C94.8743 4.00311 95.6364 6.35828 95.6364 9.47562V22.5767C95.6364 25.8039 94.888 28.317 93.3911 30.116C91.8942 31.9013 89.6627 32.7939 86.6964 32.7939ZM86.7582 26.3257C87.4448 26.3257 87.8911 26.0168 88.0971 25.3988C88.3031 24.7671 88.4061 24.0118 88.4061 23.1329V9.14603C88.4061 8.50059 88.3169 7.89635 88.1383 7.33331C87.9598 6.75653 87.5135 6.46814 86.7994 6.46814C86.099 6.46814 85.6184 6.73593 85.3574 7.27151C85.1103 7.79335 84.9867 8.4388 84.9867 9.20783V23.1741C84.9867 24.1216 85.0965 24.8838 85.3162 25.4606C85.536 26.0374 86.0166 26.3257 86.7582 26.3257Z" fill="#FFCE16"/>
<path d="M86.6964 64.3913C83.7301 64.3913 81.4985 63.4987 80.0017 61.7134C78.5048 59.9144 77.7563 57.4013 77.7563 54.1741V41.073C77.7563 37.9557 78.5185 35.6005 80.0429 34.0075C81.5809 32.4008 83.7988 31.5974 86.6964 31.5974C89.6077 31.5974 91.8256 32.4008 93.3499 34.0075C94.8743 35.6005 95.6364 37.9557 95.6364 41.073V54.1741C95.6364 57.4013 94.888 59.9144 93.3911 61.7134C91.8942 63.4987 89.6627 64.3913 86.6964 64.3913ZM86.7582 57.9232C87.4448 57.9232 87.8911 57.6142 88.0971 56.9962C88.3031 56.3645 88.4061 55.6092 88.4061 54.7303V40.7434C88.4061 40.098 88.3169 39.4938 88.1383 38.9307C87.9598 38.3539 87.5135 38.0656 86.7994 38.0656C86.099 38.0656 85.6184 38.3333 85.3574 38.8689C85.1103 39.3908 84.9867 40.0362 84.9867 40.8052V54.7715C84.9867 55.719 85.0965 56.4812 85.3162 57.058C85.536 57.6348 86.0166 57.9232 86.7582 57.9232Z" fill="#FFCE16"/>
<path d="M99.9058 64.3912V31.7255H107.193V45.1268L110.627 31.7255H118.039L113.852 47.2417L118.898 64.3912H111.255L107.235 49.3776V64.3912H99.9058Z" fill="#FFCE16"/>
</svg>
